<!--?xml version="1.0" encoding="utf-8"?-->
<!-- Generator: Adobe Illustrator 18.0.0, SVG Export Plug-In . SVG Version: 6.00 Build 0)  -->

<svg version="1.1" id="_x31_0" xmlns="http://www.w3.org/2000/svg" xmlns:xlink="http://www.w3.org/1999/xlink" x="0px" y="0px" viewBox="0 0 512 512" style="width: 256px; height: 256px; opacity: 1;" xml:space="preserve">
<style type="text/css">
	.st0{fill:#374149;}
</style>
<g>
	<path class="st0" d="M256,0C114.617,0,0,114.614,0,256s114.617,256,256,256c141.386,0,256-114.614,256-256S397.386,0,256,0z
		 M256,448c-105.867,0-192-86.133-192-192S150.133,64,256,64c105.871,0,192,86.133,192,192S361.871,448,256,448z" style="fill: rgb(75, 75, 75);"></path>
	<path class="st0" d="M296.473,120.93c-12.282-6.836-26.574-10.301-42.477-10.301c-12.336,0-24.422,2.488-35.93,7.394
		c-11.934,5.09-21.782,12.684-29.274,22.566c-7.812,10.321-11.774,22.383-11.774,35.848c0,0.91,0.024,1.813,0.063,2.703
		c-0.039,0.656-0.063,1.312-0.063,1.98c0,5.141,1.258,10.25,3.633,14.786c5.528,10.535,16.344,17.082,28.234,17.082
		c4.02,0,7.95-0.742,11.692-2.214c12.254-4.836,20.172-16.473,20.172-29.653c0-11.469-6.165-21.906-15.817-27.538
		c0.836-0.91,1.863-1.75,3.098-2.543c5.758-3.695,11.699-5.57,17.66-5.57c9.512,0,16.274,3.141,21.274,9.886
		c5.676,7.661,8.554,17.309,8.554,28.676c0,9.762-1.32,18.762-3.93,26.746c-2.843,8.714-7.25,19.582-13.098,32.297
		c-6.285,13.664-11.179,26.274-14.539,37.473l-1.378,4.469c-2.492,7.949-3.992,12.75-3.992,25.574v11.832h28.374l1.59-9.976
		c2.652-16.657,8.742-24.805,19.797-39.598l2.938-3.954l11.953-14.871c9.882-13.054,17.562-24.656,22.824-34.484
		c5.922-11.047,8.922-23.188,8.922-36.082c0-12.511-3.356-24.48-9.981-35.57C318.406,136.859,308.805,127.789,296.473,120.93z" style="fill: rgb(75, 75, 75);"></path>
	<path class="st0" d="M253.851,344.883c-7.441,0-14.359,2.93-20.007,8.465c-5.715,5.598-8.738,12.574-8.738,20.168
		c0,7.434,3.164,14.277,9.148,19.793c5.734,5.277,12.508,8.066,19.598,8.066c6.902,0,13.473-2.734,18.997-7.91
		c5.722-5.359,8.75-12.258,8.75-19.949c0-7.622-2.938-14.586-8.492-20.145C267.55,347.817,260.894,344.883,253.851,344.883z" style="fill: rgb(75, 75, 75);"></path>
</g>
</svg>
